<svg xmlns="http://www.w3.org/2000/svg" xmlns:xlink="http://www.w3.org/1999/xlink" width="387" zoomAndPan="magnify" viewBox="0 0 290.25 291.749991" height="389" preserveAspectRatio="xMidYMid meet" version="1.0"><defs><clipPath id="d19f8589b4"><path d="M 58.320312 59.335938 L 230.671875 59.335938 L 230.671875 231.691406 L 58.320312 231.691406 Z M 58.320312 59.335938 " clip-rule="nonzero"/></clipPath><clipPath id="682ed0b955"><path d="M 58.320312 145.515625 C 58.320312 193.109375 96.902344 231.691406 144.496094 231.691406 C 192.089844 231.691406 230.671875 193.109375 230.671875 145.515625 C 230.671875 97.917969 192.089844 59.335938 144.496094 59.335938 C 96.902344 59.335938 58.320312 97.917969 58.320312 145.515625 Z M 58.320312 145.515625 " clip-rule="nonzero"/></clipPath><clipPath id="c9c9c6761c"><path d="M 181 90 L 261 90 L 261 228 L 181 228 Z M 181 90 " clip-rule="nonzero"/></clipPath><clipPath id="160d64b3f1"><path d="M 158.878906 0.253906 L 289.132812 124.898438 L 130.351562 290.824219 L 0.0976562 166.179688 Z M 158.878906 0.253906 " clip-rule="nonzero"/></clipPath><clipPath id="8760d4e3e0"><path d="M 288.980469 124.753906 L 158.726562 0.109375 L -0.0546875 166.03125 L 130.199219 290.679688 Z M 288.980469 124.753906 " clip-rule="nonzero"/></clipPath><clipPath id="c88d0e531b"><path d="M 204.230469 102.652344 C 203.351562 104.089844 203.355469 105.871094 203.679688 107.464844 C 204.078125 109.054688 205.386719 110.589844 206.785156 111.359375 C 208.292969 112.164062 209.96875 112.273438 211.597656 111.910156 C 214.566406 111.261719 217.496094 110.578125 220.464844 109.929688 C 224.480469 109.007812 228.5 108.15625 232.515625 107.230469 C 228.609375 111.460938 224.851562 115.910156 221.386719 120.496094 C 215.730469 127.890625 210.554688 135.605469 205.96875 143.671875 C 201.625 151.332031 197.765625 159.308594 194.527344 167.527344 C 191.117188 176.148438 188.183594 184.941406 185.90625 193.9375 C 183.667969 202.972656 182.160156 212.132812 181.238281 221.425781 C 181.09375 223.066406 182.148438 224.789062 183.191406 225.929688 C 184.382812 227.140625 186.140625 227.683594 187.777344 227.683594 C 189.378906 227.722656 191.214844 226.84375 192.28125 225.730469 C 192.921875 225.132812 193.34375 224.398438 193.578125 223.554688 C 193.925781 222.820312 194.089844 222.054688 194.070312 221.179688 C 194.433594 217.898438 194.871094 214.617188 195.417969 211.367188 C 197.476562 199.101562 200.738281 187.066406 205.136719 175.40625 C 206.378906 172.25 207.691406 169.09375 209.074219 165.933594 C 214.417969 154.105469 220.933594 142.835938 228.484375 132.339844 C 229.828125 130.492188 231.242188 128.640625 232.65625 126.867188 C 236.160156 122.460938 239.882812 118.195312 243.722656 114.109375 C 244.402344 123.441406 245.808594 132.832031 248.082031 141.984375 C 248.519531 143.683594 249.75 145 251.1875 145.878906 C 252.625 146.757812 254.40625 146.753906 256 146.425781 C 257.589844 146.027344 259.125 144.722656 259.894531 143.324219 C 260.664062 141.851562 260.804688 140.140625 260.441406 138.511719 C 259.40625 134.3125 258.582031 130.039062 257.90625 125.765625 C 257.609375 123.84375 257.386719 121.921875 257.164062 120 C 256.335938 112.234375 256.128906 104.417969 256.539062 96.628906 C 256.640625 94.589844 255.398438 92.761719 253.847656 91.632812 C 252.183594 90.394531 250.359375 90.144531 248.332031 90.625 C 245.367188 91.273438 242.433594 91.953125 239.46875 92.601562 C 229.042969 94.941406 218.550781 97.28125 208.125 99.621094 C 206.421875 99.910156 205.070312 101.25 204.230469 102.652344 Z M 204.230469 102.652344 " clip-rule="nonzero"/></clipPath><clipPath id="2f1e8240dc"><path d="M 119 120 L 195 120 L 195 228 L 119 228 Z M 119 120 " clip-rule="nonzero"/></clipPath><clipPath id="64960fce0a"><path d="M 158.878906 0.253906 L 289.132812 124.898438 L 130.351562 290.824219 L 0.0976562 166.179688 Z M 158.878906 0.253906 " clip-rule="nonzero"/></clipPath><clipPath id="3872d31f89"><path d="M 288.980469 124.753906 L 158.726562 0.109375 L -0.0546875 166.03125 L 130.199219 290.679688 Z M 288.980469 124.753906 " clip-rule="nonzero"/></clipPath><clipPath id="eb0eda7c4f"><path d="M 120.949219 134.195312 C 119.777344 135.566406 119.191406 137 119.195312 138.78125 C 119.160156 140.527344 120.03125 142.070312 121.148438 143.285156 C 122.265625 144.421875 124.171875 145.109375 125.734375 145.039062 C 127.257812 145.003906 129.242188 144.269531 130.234375 143.085938 C 131.867188 141.15625 133.609375 139.410156 135.503906 137.804688 C 137.074219 136.605469 138.761719 135.585938 140.5625 134.746094 C 142.183594 134.09375 143.882812 133.582031 145.621094 133.253906 C 146.890625 133.117188 148.199219 133.085938 149.476562 133.167969 C 150.53125 133.328125 151.628906 133.59375 152.65625 133.933594 C 153.976562 134.488281 155.230469 135.1875 156.445312 135.996094 C 158.222656 137.414062 159.785156 138.980469 161.242188 140.730469 C 163.5625 143.734375 165.527344 147.035156 167.347656 150.339844 C 169.015625 153.433594 170.574219 156.5625 171.988281 159.769531 C 172.835938 161.785156 173.640625 163.769531 174.378906 165.824219 C 177.203125 173.582031 179.273438 181.609375 180.578125 189.765625 C 180.917969 191.9375 181.148438 194.152344 181.339844 196.332031 C 181.761719 200.648438 181.894531 204.972656 181.882812 209.300781 C 181.855469 211.484375 181.792969 213.632812 181.625 215.816406 C 181.539062 216.875 181.453125 217.929688 181.367188 218.988281 C 181.3125 219.789062 181.148438 220.554688 181.273438 221.390625 C 181.335938 222.515625 181.613281 223.566406 182.179688 224.535156 C 182.554688 224.960938 182.890625 225.425781 183.261719 225.855469 C 184.453125 227.066406 186.210938 227.609375 187.847656 227.609375 C 189.449219 227.648438 191.285156 226.769531 192.351562 225.65625 C 193.347656 224.617188 194.355469 222.59375 194.105469 221.070312 C 194.015625 220.273438 194.144531 219.46875 194.199219 218.667969 C 195.019531 209.703125 194.820312 200.617188 193.675781 191.695312 C 192.488281 182.300781 190.464844 173.035156 187.324219 164.121094 C 185.695312 159.429688 183.738281 154.78125 181.636719 150.28125 C 179.691406 146.140625 177.527344 142.082031 175.082031 138.242188 C 173.5 135.804688 171.773438 133.441406 169.871094 131.265625 C 168.339844 129.445312 166.628906 127.734375 164.707031 126.324219 C 163.378906 125.335938 162.082031 124.382812 160.648438 123.578125 C 159.210938 122.773438 157.632812 122.1875 156.058594 121.605469 C 153.636719 120.710938 150.976562 120.371094 148.390625 120.316406 C 143.1875 120.179688 138.058594 121.671875 133.453125 123.957031 C 130.96875 125.210938 128.824219 126.785156 126.644531 128.542969 C 124.570312 130.1875 122.648438 132.121094 120.949219 134.195312 Z M 120.949219 134.195312 " clip-rule="nonzero"/></clipPath><clipPath id="1b10f64c01"><path d="M 96 49 L 199 49 L 199 110 L 96 110 Z M 96 49 " clip-rule="nonzero"/></clipPath><clipPath id="3ee166771f"><path d="M 158.878906 0.253906 L 289.132812 124.898438 L 130.351562 290.824219 L 0.0976562 166.179688 Z M 158.878906 0.253906 " clip-rule="nonzero"/></clipPath><clipPath id="705b04896f"><path d="M 288.980469 124.753906 L 158.726562 0.109375 L -0.0546875 166.03125 L 130.199219 290.679688 Z M 288.980469 124.753906 " clip-rule="nonzero"/></clipPath><clipPath id="7857011924"><path d="M 148.4375 54.671875 C 147.167969 58.007812 145.929688 61.308594 144.65625 64.648438 C 140.222656 76.347656 135.753906 88.082031 131.320312 99.78125 C 130.734375 101.285156 131.320312 103.199219 132.078125 104.566406 C 132.914062 106.074219 134.460938 107.058594 136.109375 107.496094 C 137.609375 107.9375 139.5625 107.527344 140.890625 106.734375 C 141.683594 106.28125 142.289062 105.722656 142.742188 104.949219 C 143.3125 104.28125 143.660156 103.546875 143.820312 102.707031 C 145.09375 99.371094 146.332031 96.070312 147.601562 92.730469 C 152.039062 81.03125 156.507812 69.296875 160.941406 57.597656 C 161.527344 56.09375 160.9375 54.179688 160.179688 52.8125 C 159.347656 51.304688 157.796875 50.320312 156.152344 49.882812 C 154.652344 49.445312 152.695312 49.851562 151.367188 50.644531 C 150.578125 51.097656 149.972656 51.65625 149.515625 52.429688 C 148.984375 53.058594 148.636719 53.796875 148.4375 54.671875 Z M 101.535156 61.742188 C 103.125 61.34375 104.910156 61.414062 106.347656 62.289062 C 107.820312 63.203125 109.011719 64.484375 109.449219 66.1875 C 111.851562 74.460938 113.277344 83.011719 113.863281 91.621094 C 113.972656 93.21875 113.179688 95.089844 112.109375 96.203125 C 111.007812 97.355469 109.210938 98.195312 107.609375 98.15625 C 104.003906 98.054688 101.292969 95.460938 101.03125 91.867188 C 100.824219 89.035156 100.542969 86.203125 100.117188 83.375 C 99.398438 78.773438 98.386719 74.175781 97.089844 69.730469 C 96.65625 68.175781 96.835938 66.355469 97.640625 64.917969 C 98.371094 63.484375 99.941406 62.140625 101.535156 61.742188 Z M 197.003906 75.171875 C 198.160156 76.34375 199.03125 77.960938 198.960938 79.671875 C 198.933594 80.21875 198.835938 80.765625 198.8125 81.3125 C 198.546875 82.410156 197.988281 83.441406 197.207031 84.257812 C 191.445312 91.984375 185.6875 99.640625 179.929688 107.367188 C 179.011719 108.625 176.878906 109.289062 175.425781 109.320312 C 173.828125 109.355469 171.957031 108.707031 170.839844 107.566406 C 169.6875 106.394531 168.816406 104.777344 168.886719 103.066406 C 168.914062 102.519531 169.007812 101.972656 169.035156 101.425781 C 169.300781 100.328125 169.859375 99.296875 170.640625 98.480469 C 176.398438 90.753906 182.160156 83.097656 187.917969 75.371094 C 188.835938 74.113281 190.964844 73.449219 192.421875 73.417969 C 194.019531 73.382812 195.890625 74.03125 197.003906 75.171875 Z M 197.003906 75.171875 " clip-rule="nonzero"/></clipPath><clipPath id="dadfbc0725"><path d="M 20 113 L 145 113 L 145 226 L 20 226 Z M 20 113 " clip-rule="nonzero"/></clipPath><clipPath id="0ad3ee943d"><path d="M 158.878906 0.253906 L 289.132812 124.898438 L 130.351562 290.824219 L 0.0976562 166.179688 Z M 158.878906 0.253906 " clip-rule="nonzero"/></clipPath><clipPath id="9191b8759a"><path d="M 288.980469 124.753906 L 158.726562 0.109375 L -0.0546875 166.03125 L 130.199219 290.679688 Z M 288.980469 124.753906 " clip-rule="nonzero"/></clipPath><clipPath id="07d38795d6"><path d="M 62.441406 119.773438 C 67.472656 116.96875 72.988281 114.847656 78.679688 113.960938 C 81.46875 113.5 84.226562 113.21875 87.0625 113.230469 C 89.867188 113.277344 92.671875 113.542969 95.445312 113.992188 C 100.554688 114.824219 105.503906 116.496094 110.132812 118.722656 C 114.835938 120.949219 119.230469 123.941406 123.195312 127.308594 C 131.3125 134.222656 137.078125 143.371094 140.5 153.40625 C 142.25 158.566406 143.242188 163.929688 143.761719 169.335938 C 144.28125 174.816406 144.039062 180.277344 143.394531 185.710938 C 142.8125 190.632812 141.683594 195.53125 140.148438 200.253906 C 138.035156 206.628906 135.375 213.054688 130.796875 218.136719 C 129.445312 219.621094 127.875 220.964844 126.226562 222.09375 C 124.867188 223.066406 123.316406 223.71875 121.769531 224.371094 C 120.613281 224.832031 119.421875 225.1875 118.191406 225.359375 C 116.523438 225.613281 114.964844 225.832031 113.285156 225.648438 C 112.230469 225.5625 111.171875 225.476562 110.148438 225.210938 C 109.050781 224.941406 107.988281 224.492188 106.960938 224.078125 C 105.382812 223.421875 103.976562 222.363281 102.75 221.261719 C 100.117188 218.882812 98.371094 215.503906 97.460938 212.140625 C 95.792969 205.851562 96.519531 199.214844 97.289062 192.832031 C 98 187.179688 99.042969 181.558594 100.519531 176.070312 C 103.613281 164.507812 108.308594 153.203125 114.597656 143.066406 C 115.40625 141.773438 116.25 140.519531 117.09375 139.265625 C 115.421875 137.589844 113.570312 136.03125 111.683594 134.582031 C 108.320312 132.21875 104.714844 130.261719 100.972656 128.746094 C 97.636719 127.542969 94.160156 126.710938 90.625 126.246094 C 87.597656 125.984375 84.546875 126.050781 81.5 126.410156 C 78.453125 126.914062 75.492188 127.777344 72.644531 128.96875 C 69.007812 130.613281 65.5625 132.722656 62.453125 135.15625 C 58.199219 138.632812 54.472656 142.679688 51.1875 147.078125 C 46.175781 154.171875 42.3125 162.003906 38.960938 170.042969 C 38.066406 172.242188 37.167969 174.445312 36.34375 176.644531 C 35.382812 179.210938 34.417969 181.777344 33.457031 184.347656 C 33.292969 185.1875 32.910156 185.957031 32.378906 186.589844 C 31.925781 187.363281 31.316406 187.921875 30.527344 188.375 C 29.199219 189.167969 27.28125 189.535156 25.742188 189.132812 C 24.132812 188.660156 22.546875 187.714844 21.714844 186.203125 C 20.957031 184.839844 20.40625 182.960938 20.957031 181.421875 C 25.414062 169.25 29.871094 156.929688 36.648438 145.835938 C 39.914062 140.488281 43.691406 135.421875 48.066406 130.925781 C 52.335938 126.613281 57.160156 122.6875 62.441406 119.773438 Z M 116.667969 167.824219 C 113.921875 175.230469 111.835938 182.914062 110.515625 190.6875 C 110.164062 192.839844 109.882812 194.992188 109.640625 197.109375 C 109.3125 200.496094 109.097656 203.847656 109.5 207.222656 C 109.703125 208.199219 109.941406 209.140625 110.289062 210.113281 C 110.515625 210.546875 110.746094 210.976562 111.046875 211.40625 C 111.304688 211.65625 111.566406 211.902344 111.789062 212.117188 C 112.046875 212.292969 112.339844 212.433594 112.597656 212.535156 C 113 212.636719 113.402344 212.738281 113.765625 212.800781 C 114.3125 212.824219 114.894531 212.8125 115.476562 212.726562 C 116.199219 212.566406 116.886719 212.367188 117.570312 212.097656 C 118.289062 211.71875 118.9375 211.339844 119.617188 210.855469 C 120.648438 209.921875 121.574219 208.957031 122.421875 207.847656 C 124.183594 205.261719 125.503906 202.46875 126.675781 199.535156 C 128.738281 194.03125 130.101562 188.292969 130.808594 182.421875 C 131.3125 177.136719 131.230469 171.792969 130.496094 166.535156 C 129.742188 161.96875 128.515625 157.523438 126.714844 153.234375 C 126.21875 152.191406 125.722656 151.148438 125.152344 150.105469 C 121.824219 155.816406 119.046875 161.769531 116.667969 167.824219 Z M 116.667969 167.824219 " clip-rule="nonzero"/></clipPath></defs><g clip-path="url(#d19f8589b4)"><g clip-path="url(#682ed0b955)"><path fill="#542746" d="M 58.320312 231.691406 L 58.320312 59.335938 L 230.671875 59.335938 L 230.671875 231.691406 Z M 58.320312 231.691406 " fill-opacity="1" fill-rule="nonzero"/></g></g><g clip-path="url(#c9c9c6761c)"><g clip-path="url(#160d64b3f1)"><g clip-path="url(#8760d4e3e0)"><g clip-path="url(#c88d0e531b)"><path fill="#5cb6f9" d="M 329.527344 155.90625 L 222.703125 267.539062 L 112.371094 161.957031 L 219.195312 50.324219 Z M 329.527344 155.90625 " fill-opacity="1" fill-rule="nonzero"/></g></g></g></g><g clip-path="url(#2f1e8240dc)"><g clip-path="url(#64960fce0a)"><g clip-path="url(#3872d31f89)"><g clip-path="url(#eb0eda7c4f)"><path fill="#5cb6f9" d="M 248.703125 171.550781 L 158.757812 265.539062 L 65.476562 176.277344 L 155.421875 82.285156 Z M 248.703125 171.550781 " fill-opacity="1" fill-rule="nonzero"/></g></g></g></g><g clip-path="url(#1b10f64c01)"><g clip-path="url(#3ee166771f)"><g clip-path="url(#705b04896f)"><g clip-path="url(#7857011924)"><path fill="#5cb6f9" d="M 228.957031 78.082031 L 150.09375 160.496094 L 66.730469 80.71875 L 145.59375 -1.695312 Z M 228.957031 78.082031 " fill-opacity="1" fill-rule="nonzero"/></g></g></g></g><g clip-path="url(#dadfbc0725)"><g clip-path="url(#0ad3ee943d)"><g clip-path="url(#9191b8759a)"><g clip-path="url(#07d38795d6)"><path fill="#5cb6f9" d="M 200.53125 167.050781 L 85.066406 287.707031 L -35.84375 172 L 79.621094 51.34375 Z M 200.53125 167.050781 " fill-opacity="1" fill-rule="nonzero"/></g></g></g></g></svg>