<svg xmlns="http://www.w3.org/2000/svg" xmlns:xlink="http://www.w3.org/1999/xlink" width="500" zoomAndPan="magnify" viewBox="0 0 375 374.999991" height="500" preserveAspectRatio="xMidYMid meet" version="1.0"><defs><clipPath id="73f650a97d"><path d="M 298 71 L 328 71 L 328 95 L 298 95 Z M 298 71 " clip-rule="nonzero"/></clipPath><clipPath id="37567864ff"><path d="M 327.292969 74.074219 C 327.199219 74.371094 327.121094 74.667969 327.027344 74.953125 C 326.242188 77.417969 325.21875 79.816406 323.933594 82.0625 C 322.660156 84.277344 321.121094 86.363281 319.347656 88.1875 C 318.40625 89.160156 317.371094 90.039062 316.289062 90.855469 C 315.265625 91.640625 314.199219 92.347656 313.054688 92.925781 C 310.355469 94.324219 307.167969 95.140625 304.167969 94.261719 C 301.484375 93.476562 299.019531 91.417969 298.359375 88.609375 L 302.144531 87.574219 C 302.191406 87.777344 302.253906 87.964844 302.332031 88.171875 C 302.457031 88.421875 302.597656 88.65625 302.753906 88.875 C 302.992188 89.144531 303.226562 89.394531 303.507812 89.613281 C 303.871094 89.867188 304.261719 90.101562 304.65625 90.289062 C 305.109375 90.460938 305.582031 90.585938 306.066406 90.683594 C 306.617188 90.730469 307.183594 90.730469 307.730469 90.667969 C 308.578125 90.523438 309.394531 90.289062 310.195312 89.976562 C 311.59375 89.363281 312.898438 88.546875 314.121094 87.621094 C 315.722656 86.347656 317.167969 84.890625 318.4375 83.289062 C 318.753906 82.878906 319.050781 82.472656 319.332031 82.046875 C 320.464844 80.382812 321.40625 78.609375 322.207031 76.773438 C 322.707031 75.546875 323.148438 74.292969 323.523438 73.019531 C 323.667969 72.519531 323.996094 72.125 324.417969 71.84375 C 324.859375 71.5625 325.425781 71.53125 325.925781 71.640625 C 326.398438 71.75 326.867188 72.140625 327.105469 72.535156 C 327.355469 72.988281 327.433594 73.585938 327.292969 74.074219 Z M 327.292969 74.074219 " clip-rule="nonzero"/></clipPath><clipPath id="e94e83aab7"><path d="M 265.296875 37.5 L 329 37.5 L 329 83 L 265.296875 83 Z M 265.296875 37.5 " clip-rule="nonzero"/></clipPath><clipPath id="3aa2e116f2"><path d="M 328.910156 63.523438 C 328.816406 67.085938 328.28125 70.648438 327.292969 74.074219 C 326.996094 75.125 325.925781 75.691406 324.875 75.4375 C 323.855469 75.203125 323.226562 74.007812 323.507812 73.019531 C 324.027344 71.230469 324.417969 69.410156 324.671875 67.558594 C 325.0625 64.464844 325.109375 61.308594 324.734375 58.199219 C 324.417969 56.019531 323.871094 53.867188 323.039062 51.8125 C 322.394531 50.351562 321.609375 48.96875 320.652344 47.683594 C 319.757812 46.566406 318.738281 45.546875 317.621094 44.652344 C 316.570312 43.867188 315.425781 43.191406 314.214844 42.660156 C 313.132812 42.234375 312.019531 41.921875 310.871094 41.734375 C 309.914062 41.621094 308.957031 41.605469 308 41.71875 C 306.976562 41.875 305.988281 42.171875 305.03125 42.550781 C 303.902344 43.050781 302.847656 43.679688 301.859375 44.402344 C 300.871094 45.1875 299.992188 46.082031 299.207031 47.054688 C 298.390625 48.136719 297.714844 49.316406 297.183594 50.554688 C 296.367188 52.582031 295.910156 54.714844 295.613281 56.867188 C 295.457031 58.027344 295.359375 59.191406 295.296875 60.367188 C 295.171875 62.691406 295.171875 65.046875 295.425781 67.367188 C 295.488281 67.871094 295.171875 68.40625 294.84375 68.75 C 294.558594 69.066406 294.121094 69.238281 293.710938 69.285156 C 293.273438 69.347656 292.863281 69.269531 292.457031 69.050781 C 292.0625 68.84375 291.828125 68.484375 291.65625 68.089844 C 291.65625 68.105469 291.65625 68.105469 291.671875 68.121094 C 291.671875 68.105469 291.65625 68.105469 291.65625 68.089844 C 291.640625 68.042969 291.609375 67.996094 291.59375 67.949219 C 291.46875 67.652344 291.328125 67.351562 291.183594 67.054688 C 289.945312 64.386719 288.46875 61.796875 286.679688 59.441406 C 285.691406 58.199219 284.609375 57.023438 283.351562 56.035156 C 282.691406 55.546875 282 55.125 281.246094 54.777344 C 280.746094 54.589844 280.242188 54.449219 279.726562 54.355469 C 279.238281 54.308594 278.734375 54.308594 278.234375 54.355469 C 277.730469 54.449219 277.246094 54.574219 276.773438 54.761719 C 276.019531 55.109375 275.296875 55.546875 274.621094 56.035156 C 273.824219 56.679688 273.117188 57.398438 272.472656 58.199219 C 271.734375 59.207031 271.105469 60.273438 270.605469 61.417969 C 270.054688 62.769531 269.679688 64.199219 269.457031 65.640625 C 269.144531 68.28125 269.269531 70.949219 269.613281 73.585938 C 269.898438 75.578125 270.273438 77.542969 270.652344 79.519531 C 270.855469 80.601562 270.351562 81.59375 269.285156 81.9375 C 268.8125 82.09375 268.1875 81.984375 267.777344 81.734375 C 267.386719 81.5 266.960938 81.027344 266.882812 80.554688 C 266.726562 79.753906 266.570312 78.953125 266.429688 78.152344 C 265.816406 74.839844 265.296875 71.449219 265.375 68.074219 C 265.421875 66.472656 265.582031 64.855469 265.925781 63.289062 C 266.222656 61.9375 266.695312 60.632812 267.261719 59.363281 C 269.269531 54.984375 273.351562 50.917969 278.34375 50.445312 C 281.84375 50.117188 285.109375 52.125 287.511719 54.480469 C 289.003906 55.941406 290.289062 57.605469 291.4375 59.363281 C 291.609375 56.726562 292 54.085938 292.707031 51.542969 C 294.121094 46.503906 297.464844 42.03125 302.144531 39.597656 C 304.042969 38.609375 306.050781 37.964844 308.1875 37.777344 C 311.152344 37.511719 314.152344 38.246094 316.804688 39.550781 C 319.410156 40.824219 321.734375 42.753906 323.523438 45.03125 C 325.566406 47.621094 326.996094 50.601562 327.84375 53.789062 C 328.691406 56.945312 329.003906 60.257812 328.910156 63.523438 Z M 328.910156 63.523438 " clip-rule="nonzero"/></clipPath><clipPath id="48d0ae8a2c"><path d="M 301 55 L 317 55 L 317 68 L 301 68 Z M 301 55 " clip-rule="nonzero"/></clipPath><clipPath id="2c635de51c"><path d="M 316.996094 56.976562 C 316.882812 59.394531 316.757812 61.828125 316.648438 64.246094 C 316.617188 64.777344 316.429688 65.234375 316.066406 65.625 C 315.707031 66.019531 315.1875 66.175781 314.6875 66.207031 C 314.199219 66.222656 313.632812 65.972656 313.304688 65.625 C 312.960938 65.28125 312.707031 64.730469 312.722656 64.246094 C 312.835938 61.828125 312.960938 59.394531 313.070312 56.976562 C 313.101562 56.441406 313.289062 55.988281 313.648438 55.59375 C 314.011719 55.203125 314.53125 55.046875 315.03125 55.015625 C 315.519531 55 316.082031 55.25 316.414062 55.59375 C 316.757812 55.925781 317.011719 56.472656 316.996094 56.976562 Z M 305.410156 57.542969 C 305.140625 57.117188 304.734375 56.773438 304.230469 56.648438 C 303.761719 56.519531 303.132812 56.566406 302.722656 56.851562 C 302.300781 57.117188 301.9375 57.527344 301.828125 58.027344 C 301.71875 58.53125 301.75 59.097656 302.03125 59.535156 C 303.523438 61.90625 305.015625 64.261719 306.492188 66.632812 C 306.757812 67.054688 307.167969 67.402344 307.667969 67.527344 C 308.140625 67.652344 308.769531 67.605469 309.175781 67.320312 C 309.601562 67.054688 309.960938 66.648438 310.070312 66.144531 C 310.179688 65.640625 310.148438 65.078125 309.867188 64.636719 C 308.390625 62.265625 306.898438 59.914062 305.410156 57.542969 Z M 305.410156 57.542969 " clip-rule="nonzero"/></clipPath><clipPath id="754d417651"><path d="M 298 70 L 337.296875 70 L 337.296875 115.5 L 298 115.5 Z M 298 70 " clip-rule="nonzero"/></clipPath><clipPath id="087fd79c1c"><path d="M 336.789062 92.675781 C 336.429688 94.496094 335.816406 96.238281 335.078125 97.949219 C 334.515625 99.253906 333.839844 100.523438 333.085938 101.71875 C 331.5 104.183594 329.554688 106.445312 327.324219 108.34375 C 325.09375 110.242188 322.613281 111.859375 319.929688 113.039062 C 318.515625 113.664062 317.074219 114.199219 315.582031 114.605469 C 314.089844 115.015625 312.566406 115.265625 311.027344 115.4375 C 310.527344 115.5 309.992188 115.1875 309.648438 114.859375 C 309.253906 114.496094 309.097656 113.980469 309.066406 113.476562 C 309.050781 112.988281 309.300781 112.425781 309.648438 112.09375 C 309.820312 111.90625 310.039062 111.765625 310.273438 111.6875 C 310.511719 111.5625 310.761719 111.515625 311.027344 111.515625 C 311.136719 111.5 311.25 111.484375 311.359375 111.46875 C 313.570312 111.152344 315.722656 110.558594 317.777344 109.710938 C 319.882812 108.796875 321.875 107.621094 323.714844 106.238281 C 325.472656 104.859375 327.074219 103.257812 328.453125 101.5 C 329.742188 99.804688 330.808594 97.964844 331.65625 96.019531 C 332.378906 94.246094 332.914062 92.378906 333.195312 90.476562 C 333.367188 88.972656 333.382812 87.433594 333.210938 85.925781 C 333.023438 84.652344 332.675781 83.414062 332.191406 82.21875 C 331.71875 81.167969 331.15625 80.164062 330.464844 79.253906 C 329.851562 78.5 329.160156 77.792969 328.40625 77.179688 C 327.621094 76.601562 326.789062 76.128906 325.910156 75.722656 C 324.8125 75.28125 323.667969 74.984375 322.488281 74.792969 C 321.089844 74.621094 319.664062 74.636719 318.265625 74.808594 C 317.136719 74.984375 316.035156 75.265625 314.9375 75.578125 C 313.792969 75.925781 312.644531 76.316406 311.53125 76.773438 C 309.488281 77.652344 307.527344 78.734375 305.753906 80.085938 C 305 80.683594 304.308594 81.339844 303.695312 82.078125 C 303.257812 82.691406 302.882812 83.335938 302.566406 84.011719 C 302.347656 84.574219 302.191406 85.140625 302.082031 85.738281 C 302.03125 86.253906 302.015625 86.757812 302.082031 87.273438 C 302.097656 87.371094 302.113281 87.480469 302.144531 87.574219 C 302.269531 88.105469 302.207031 88.609375 301.9375 89.082031 C 301.703125 89.535156 301.25 89.835938 300.761719 89.976562 C 300.289062 90.132812 299.664062 90.023438 299.253906 89.769531 C 298.847656 89.535156 298.453125 89.066406 298.359375 88.59375 C 298.171875 87.777344 298.078125 86.914062 298.125 86.066406 C 298.328125 82.644531 300.195312 79.550781 302.816406 77.417969 C 304.152344 76.332031 305.566406 75.375 307.089844 74.542969 C 308.625 73.710938 310.226562 73.019531 311.875 72.425781 C 314.90625 71.324219 318.140625 70.570312 321.390625 70.746094 C 323.070312 70.839844 324.75 71.121094 326.335938 71.671875 C 327.183594 71.96875 328.015625 72.328125 328.816406 72.753906 C 329.617188 73.175781 330.339844 73.695312 331.042969 74.261719 C 333.589844 76.253906 335.363281 79.128906 336.367188 82.15625 C 337.480469 85.5625 337.496094 89.207031 336.789062 92.675781 Z M 336.789062 92.675781 " clip-rule="nonzero"/></clipPath></defs><rect x="-37.5" width="450" fill="#ffffff" y="-37.499999" height="449.999989" fill-opacity="1"/><rect x="-37.5" width="450" fill="#542746" y="-37.499999" height="449.999989" fill-opacity="1"/><g clip-path="url(#73f650a97d)"><g clip-path="url(#37567864ff)"><path fill="#e66222" d="M 298.359375 71.53125 L 298.359375 95.140625 L 327.433594 95.140625 L 327.433594 71.53125 Z M 298.359375 71.53125 " fill-opacity="1" fill-rule="nonzero"/></g></g><g clip-path="url(#e94e83aab7)"><g clip-path="url(#3aa2e116f2)"><path fill="#e66222" d="M 265.296875 37.511719 L 265.296875 82.09375 L 329.003906 82.09375 L 329.003906 37.511719 Z M 265.296875 37.511719 " fill-opacity="1" fill-rule="nonzero"/></g></g><g clip-path="url(#48d0ae8a2c)"><g clip-path="url(#2c635de51c)"><path fill="#e66222" d="M 301.71875 55 L 301.71875 67.652344 L 317.011719 67.652344 L 317.011719 55 Z M 301.71875 55 " fill-opacity="1" fill-rule="nonzero"/></g></g><g clip-path="url(#754d417651)"><g clip-path="url(#087fd79c1c)"><path fill="#e66222" d="M 298.078125 70.570312 L 298.078125 115.5 L 337.296875 115.5 L 337.296875 70.570312 Z M 298.078125 70.570312 " fill-opacity="1" fill-rule="nonzero"/></g></g></svg>